<svg xmlns="http://www.w3.org/2000/svg" xmlns:xlink="http://www.w3.org/1999/xlink" width="2865" height="2835" viewBox="0 0 2865 2835"><defs><clipPath id="b"><rect width="2865" height="2835"/></clipPath></defs><g id="a" clip-path="url(#b)"><g transform="translate(-100 -115)"><path d="M0,0H3065.168V3065.168H0Z" fill="none"/><path d="M1151.438,640.577h255.431V896.007H1151.438Zm0,510.861h255.431V1917.73H1151.438ZM1279.153,2C574.165,2,2,574.165,2,1279.153S574.165,2556.307,1279.153,2556.307s1277.153-572.165,1277.153-1277.153S1984.142,2,1279.153,2Zm0,2298.876c-563.224,0-1021.723-458.5-1021.723-1021.723S715.929,257.431,1279.153,257.431s1021.723,458.5,1021.723,1021.723S1842.378,2300.876,1279.153,2300.876Z" transform="translate(253.431 253.431)" fill="#a3a3a3"/></g></g></svg>