<svg xmlns="http://www.w3.org/2000/svg" xmlns:xlink="http://www.w3.org/1999/xlink" width="2865" height="2835" viewBox="0 0 2865 2835"><defs><clipPath id="b"><rect width="2865" height="2835"/></clipPath></defs><g id="a" clip-path="url(#b)"><g transform="translate(-138 -153)"><path d="M0,0H3142V3142H0Z" fill="none"/><path d="M1670.634,797.219l-343.27,343.27L984.1,797.219,797.219,984.1l343.27,343.269-343.27,343.27L984.1,1857.51l343.269-343.269,343.27,343.269,186.876-186.876-343.269-343.27L1857.51,984.1ZM1327.365,2C594.438,2,2,594.438,2,1327.365S594.438,2652.729,1327.365,2652.729s1325.365-592.438,1325.365-1325.365S2060.291,2,1327.365,2Zm0,2385.656c-584.486,0-1060.292-475.806-1060.292-1060.292S742.879,267.073,1327.365,267.073,2387.656,742.879,2387.656,1327.365,1911.85,2387.656,1327.365,2387.656Z" transform="translate(243.635 243.635)" fill="#a3a3a3"/></g></g></svg>