<svg xmlns="http://www.w3.org/2000/svg" xmlns:xlink="http://www.w3.org/1999/xlink" width="2865" height="2835" viewBox="0 0 2865 2835"><defs><clipPath id="b"><rect width="2865" height="2835"/></clipPath></defs><g id="a" clip-path="url(#b)"><g transform="translate(211.134 196.134)"><path d="M0,0H2442.862V2442.862H0Z" fill="none"/><path d="M219.066,2441.752V1526.845H4V855.913C4,721.727,133.04,611.938,290.755,611.938H720.888c157.716,0,286.755,109.789,286.755,243.975v670.932H792.577v914.907Zm1792.221,0V1709.827H2441.42L2077.241,779.061c-40.146-100.03-149.113-167.123-272.418-167.123h-17.206c-123.3,0-233.705,67.093-272.417,167.123l-364.179,930.766h430.133v731.925ZM505.822,489.95c159.149,0,286.755-108.569,286.755-243.975S664.971,2,505.822,2,219.066,110.569,219.066,245.975,346.672,489.95,505.822,489.95Zm1290.4,0c159.149,0,286.755-108.569,286.755-243.975S1955.37,2,1796.22,2s-286.755,108.569-286.755,243.975S1637.071,489.95,1796.22,489.95Z" transform="translate(-0.89 -0.445)" fill="#a3a3a3"/></g></g></svg>