<svg xmlns="http://www.w3.org/2000/svg" xmlns:xlink="http://www.w3.org/1999/xlink" width="2865" height="2835" viewBox="0 0 2865 2835"><defs><clipPath id="b"><rect width="2865" height="2835"/></clipPath></defs><g id="a" clip-path="url(#b)"><g transform="translate(-138 -153)"><rect width="3142" height="3142" fill="none"/><g transform="translate(654.653 261.861)"><path d="M921.515,1835.029c506.7,0,916.514-409.813,916.514-916.514S1428.216,2,921.515,2,5,411.813,5,918.515,414.813,1835.029,921.515,1835.029Zm0-1571.168c361.369,0,654.653,293.285,654.653,654.653s-293.285,654.653-654.653,654.653S266.861,1279.883,266.861,918.515,560.146,263.861,921.515,263.861Z" transform="translate(-5 -2)" fill="#a3a3a3"/><ellipse cx="131" cy="130.5" rx="131" ry="130.5" transform="translate(523.347 655.139)" fill="#a3a3a3"/><ellipse cx="131" cy="130.5" rx="131" ry="130.5" transform="translate(1047.347 655.139)" fill="#a3a3a3"/><ellipse cx="131" cy="131.5" rx="131" ry="131.5" transform="translate(785.347 392.139)" fill="#a3a3a3"/><path d="M7,278.861H268.861c144.024,0,261.861,117.838,261.861,261.861V671.653H792.584V540.723c0-144.024,117.837-261.861,261.861-261.861h261.861V17H7Z" transform="translate(254.861 1946.959)" fill="#a3a3a3"/></g></g></g></svg>