<svg xmlns="http://www.w3.org/2000/svg" xmlns:xlink="http://www.w3.org/1999/xlink" width="2865" height="2835" viewBox="0 0 2865 2835"><defs><clipPath id="b"><rect width="2865" height="2835"/></clipPath></defs><g id="a" clip-path="url(#b)"><g transform="translate(82 67)"><path d="M0,0H2701.614V2701.614H0Z" fill="none"/><path d="M1351.088,2C606.391,2,2,606.391,2,1351.088S606.391,2700.175,1351.088,2700.175s1349.087-604.391,1349.087-1349.087S2095.784,2,1351.088,2ZM1486,2295.449H1216.179V2025.631H1486Zm279.261-1045.543-121.418,124.116C1546.705,1472.505,1486,1553.45,1486,1755.814H1216.179v-67.455c0-148.4,60.709-283.308,157.843-381.792l167.287-169.985c49.916-48.567,79.6-116.021,79.6-190.221,0-148.4-121.418-269.818-269.817-269.818S1081.27,797.962,1081.27,946.361H811.452c0-298.148,241.487-539.635,539.635-539.635s539.635,241.487,539.635,539.635A429.286,429.286,0,0,1,1765.257,1249.906Z" transform="translate(-0.28 -0.28)" fill="#a3a3a3"/></g></g></svg>