<svg xmlns="http://www.w3.org/2000/svg" width="11562" height="11562" viewBox="0 0 11562 11562"><g transform="translate(-1831 -1063)"><g transform="translate(1831 1063)" fill="none" stroke="#fff" stroke-width="400"><circle cx="5781" cy="5781" r="5781" stroke="none"/><circle cx="5781" cy="5781" r="5581" fill="none"/></g><g transform="translate(3850 3082)"><path d="M4646.382,776.255a145.611,145.611,0,0,1-72.1-18.808c-601.851-310.329-1122.2-441.984-1745.992-441.984-620.658,0-1209.969,147.328-1745.992,441.984-75.231,40.75-169.27,12.539-213.155-62.693-40.75-75.231-12.539-172.4,62.693-213.155C1514.882,165,2154.347,2,2828.294,2c667.677,0,1250.72,147.328,1890.186,476.465,78.366,40.75,106.578,134.789,65.827,210.021-28.212,56.423-81.5,87.77-137.924,87.77ZM160.719,2421.939c-31.346,0-62.693-9.4-90.9-28.212C-2.282,2343.573-17.955,2246.4,32.2,2174.3c310.329-438.849,705.293-783.659,1175.488-1025.026,984.275-507.811,2244.4-510.946,3231.809-3.135,470.2,241.367,865.16,583.042,1175.489,1018.756,50.154,68.962,34.481,169.27-37.616,219.425s-169.27,34.481-219.424-37.615c-282.117-394.964-639.466-705.293-1062.641-921.583-899.641-460.791-2050.052-460.791-2946.558,3.135-426.31,219.424-783.659,532.888-1065.776,927.853-25.077,43.885-72.1,65.827-122.251,65.827ZM2119.866,6205.444c-40.75,0-81.5-15.673-109.712-47.02-272.714-272.713-420.041-448.253-630.062-827.543-216.29-385.56-329.137-855.756-329.137-1360.432,0-930.987,796.2-1689.568,1774.2-1689.568s1774.2,758.582,1774.2,1689.568c0,87.77-68.961,156.732-156.732,156.732S4285.9,4058.219,4285.9,3970.449c0-758.582-655.139-1376.1-1460.74-1376.1s-1460.74,617.523-1460.74,1376.1c0,451.388,100.308,868.294,291.521,1206.835,200.617,360.483,338.541,514.081,579.908,758.582a160.945,160.945,0,0,1,0,222.559c-34.481,31.347-75.231,47.02-115.982,47.02ZM4367.4,5625.537c-373.022,0-702.159-94.039-971.738-278.982-467.061-316.6-746.043-830.678-746.043-1376.1,0-87.77,68.962-156.732,156.732-156.732s156.731,68.962,156.731,156.732c0,441.984,225.694,858.891,608.119,1115.93,222.56,150.462,482.734,222.559,796.2,222.559,75.23,0,200.616-9.4,326-31.347,84.636-15.672,166.136,40.75,181.81,128.521,15.673,84.635-40.75,166.136-128.521,181.809-178.674,34.481-335.406,37.616-379.291,37.616Zm-630.062,645.735c-12.539,0-28.212-3.135-40.75-6.269-498.407-137.924-824.409-322.868-1166.085-658.274-438.849-435.714-680.216-1015.622-680.216-1636.28,0-507.811,432.58-921.583,965.468-921.583s965.468,413.772,965.468,921.583c0,335.406,291.521,608.12,652,608.12s652-272.713,652-608.12c0-1181.758-1018.757-2140.956-2272.611-2140.956-890.236,0-1705.241,495.272-2071.994,1263.259-122.251,253.906-184.943,551.7-184.943,877.7,0,244.5,21.942,630.062,210.021,1131.6,31.346,81.5-9.4,172.4-90.9,200.617-81.5,31.346-172.4-12.539-200.617-90.905-153.6-410.637-228.828-818.14-228.828-1241.316,0-376.156,72.1-717.832,213.155-1015.622C875.415,2080.263,1800.133,1512.894,2812.62,1512.894c1426.259,0,2586.074,1100.257,2586.074,2454.42,0,507.811-432.579,921.583-965.467,921.583s-965.469-413.772-965.469-921.583c0-335.406-291.521-608.119-652-608.119s-652,272.713-652,608.119c0,536.023,206.886,1037.564,586.177,1413.721,297.79,294.656,583.042,457.656,1025.026,579.908,84.635,21.942,131.654,109.712,109.712,191.213-15.673,72.1-81.5,119.116-147.328,119.116Z" transform="translate(936.404 624.927)" fill="#fff"/><path d="M0,0H7523.125V7523.125H0Z" fill="none"/></g></g></svg>