<svg xmlns="http://www.w3.org/2000/svg" width="11562" height="11562" viewBox="0 0 11562 11562"><g transform="translate(-1831 -1063)"><g transform="translate(1831 1063)" fill="none" stroke="#fff" stroke-width="400"><circle cx="5781" cy="5781" r="5781" stroke="none"/><circle cx="5781" cy="5781" r="5581" fill="none"/></g><g transform="translate(3798.074 4265.383)"><path d="M7619.8,4090.577,7187.043,1268.619C7075.876,542.867,6404.906,5,5614.829,5H2017.792C1227.715,5,556.745,542.867,445.578,1268.619L12.822,4090.577c-87.345,567.339,385.113,1072.05,1000.5,1072.05h0c269.976,0,524.072-99.469,714.643-276.3l897.274-828.9H5007.382l893.3,828.9c190.571,176.833,448.636,276.3,714.642,276.3h0C7234.686,5162.627,7707.144,4657.916,7619.8,4090.577ZM3419.286,2215.411H2625.239v736.8H2228.215v-736.8H1434.168v-368.4h794.047v-736.8h397.024v736.8h794.047Zm1588.1-368.4c-218.363,0-397.024-165.781-397.024-368.4s178.661-368.4,397.024-368.4,397.024,165.781,397.024,368.4S5225.746,1847.009,5007.382,1847.009ZM5801.43,2952.215c-218.363,0-397.024-165.78-397.024-368.4s178.661-368.4,397.024-368.4,397.024,165.781,397.024,368.4S6019.792,2952.215,5801.43,2952.215Z" transform="translate(-2.394 -5)" fill="#fff"/></g></g></svg>