<svg xmlns="http://www.w3.org/2000/svg" xmlns:xlink="http://www.w3.org/1999/xlink" width="2865" height="2835" viewBox="0 0 2865 2835"><defs><clipPath id="b"><rect width="2865" height="2835"/></clipPath></defs><g id="a" clip-path="url(#b)"><g transform="translate(-99 -114)"><path d="M0,0H3142V3142H0Z" fill="none"/><path d="M1316.388,2C590.12,2,2,591.435,2,1317.7s588.12,1315.7,1314.388,1315.7c727.584,0,1317.02-589.435,1317.02-1315.7S2043.973,2,1316.388,2Zm911.783,789.422H1840.039c-42.1-164.463-102.625-322.347-181.567-468.391C1900.561,405.921,2101.864,574.331,2228.171,791.422ZM1317.7,270.4c109.2,157.884,194.724,332.873,251.3,521.019H1066.4C1122.98,603.277,1208.5,428.288,1317.7,270.4ZM299.349,1580.845c-21.051-84.205-34.208-172.357-34.208-263.141s13.157-178.936,34.208-263.141H744.057c-10.526,86.837-18.42,173.673-18.42,263.141s7.894,176.3,18.42,263.141Zm107.888,263.141H795.37c42.1,164.463,102.625,322.348,181.567,468.39a1050.826,1050.826,0,0,1-569.7-468.39ZM795.37,791.422H407.237a1050.826,1050.826,0,0,1,569.7-468.391C897.995,469.075,837.472,626.959,795.369,791.422ZM1317.7,2365c-109.2-157.885-194.724-332.873-251.3-521.019H1569C1512.428,2032.131,1426.907,2207.12,1317.7,2365Zm307.875-784.159h-615.75c-11.841-86.837-21.051-173.673-21.051-263.141s9.21-177.62,21.051-263.141h615.75c11.841,85.521,21.051,173.673,21.051,263.141S1637.42,1494.008,1625.579,1580.845Zm32.893,731.531c78.942-146.043,139.465-303.927,181.567-468.39h388.132C2101.864,2061.077,1900.561,2229.487,1658.471,2312.376Zm232.88-731.531c10.526-86.837,18.42-173.673,18.42-263.141s-7.894-176.3-18.42-263.141h444.708c21.051,84.205,34.208,172.357,34.208,263.141s-13.157,178.936-34.208,263.141Z" transform="translate(253.296 253.296)" fill="#a3a3a3"/></g></g></svg>