<svg xmlns="http://www.w3.org/2000/svg" xmlns:xlink="http://www.w3.org/1999/xlink" width="2865" height="2835" viewBox="0 0 2865 2835"><defs><clipPath id="b"><rect width="2865" height="2835"/></clipPath></defs><g id="a" clip-path="url(#b)"><g transform="translate(-136 -152)"><rect width="3142" height="3142" fill="none"/><g transform="translate(295.075 708.383)"><path d="M2551.226,1372.06l-144.8-944.245C2369.226,184.974,2144.715,5,1880.35,5H676.759C412.394,5,187.883,184.974,150.686,427.815L5.883,1372.06c-29.226,189.835,128.861,358.715,334.774,358.715h0c90.336,0,175.358-33.283,239.124-92.452l300.234-277.356h797.08L1976,1638.322c63.766,59.169,150.116,92.452,239.124,92.452h0C2422.364,1730.774,2580.452,1561.9,2551.226,1372.06ZM1145.708,744.618H880.014V991.157H747.168V744.618H481.474V621.348H747.168V374.809H880.014V621.348h265.693Zm531.387-123.27c-73.066,0-132.847-55.471-132.847-123.27s59.781-123.27,132.847-123.27,132.847,55.471,132.847,123.27S1750.16,621.348,1677.094,621.348Zm265.693,369.809c-73.066,0-132.847-55.471-132.847-123.269s59.781-123.27,132.847-123.27,132.847,55.471,132.847,123.27S2015.853,991.157,1942.788,991.157Z" transform="translate(-2.394 -5)" fill="#70eac4"/></g></g></g></svg>