<svg xmlns="http://www.w3.org/2000/svg" xmlns:xlink="http://www.w3.org/1999/xlink" width="2865" height="2835" viewBox="0 0 2865 2835"><defs><clipPath id="b"><rect width="2865" height="2835"/></clipPath></defs><g id="a" clip-path="url(#b)"><g transform="translate(-367 -382)"><path d="M1203.448,288.869c173.92,0,314.855,140.935,314.855,314.855s-140.935,314.855-314.855,314.855S888.593,777.644,888.593,603.724s140.935-314.855,314.855-314.855m0,1349.379c445.3,0,914.579,218.9,914.579,314.855v164.924H288.869V1953.1c0-95.956,469.284-314.855,914.579-314.855M1203.448,4C872.1,4,603.724,272.377,603.724,603.724s268.377,599.724,599.724,599.724,599.724-268.376,599.724-599.724S1534.8,4,1203.448,4Zm0,1349.379C803.132,1353.379,4,1554.287,4,1953.1V2402.9H2402.9V1953.1C2402.9,1554.287,1603.764,1353.379,1203.448,1353.379Z" transform="translate(595.724 595.724)" fill="#b1b1b1"/><path d="M0,0H3598.345V3598.345H0Z" fill="none"/></g></g></svg>